<svg width="928" height="311" viewBox="0 0 928 311" fill="none" xmlns="http://www.w3.org/2000/svg">
<path d="M108.021 160.827L81.1594 82.6707L53.6755 160.827H108.021ZM148.326 233.799C141.301 235.327 131.834 231.961 128.173 222.799L117.182 191.663H42.6835L29.8608 222.799C28.3368 229.827 22.5381 233.799 15.2088 233.799H11.8541C2.69279 229.827 -0.977883 220.981 0.862117 213.651L66.1995 31.684C68.0288 25.884 73.5221 20.6947 81.1594 20.6947C88.4808 20.6947 93.6741 25.884 95.5061 31.684L157.479 213.651C160.841 220.981 157.479 229.827 148.326 233.799" fill="white"/>
<path d="M164.519 157.779C164.519 115.337 198.719 81.1458 240.849 81.1458C268.331 81.1458 293.669 95.7992 307.41 119.313C311.686 126.638 308.935 135.797 301.91 140.07C294.581 144.039 285.426 141.597 281.153 134.57C272.903 120.225 257.637 111.37 240.849 111.37C215.51 111.37 194.446 132.138 194.446 157.779C194.446 183.117 215.51 204.185 240.849 204.185C256.727 204.185 271.379 196.246 279.926 182.811C284.507 175.785 293.975 173.954 300.991 178.231C308.015 182.811 309.846 192.278 305.273 199.293C291.226 221.279 267.105 234.414 240.849 234.414C198.719 234.414 164.519 199.907 164.519 157.779Z" fill="white"/>
<path d="M353.838 158.691C353.838 184.333 374.595 205.102 400.239 205.102C425.884 205.102 446.65 184.333 446.65 158.999V158.691C446.65 133.046 425.884 112.289 400.239 112.289C374.595 112.289 353.838 133.354 353.838 158.691ZM323.604 158.691C323.604 116.562 357.806 82.0554 400.239 82.0554C442.374 82.0554 476.874 116.562 476.874 158.691V158.999V295.773C476.874 304.023 470.156 310.733 461.608 310.733C453.366 310.733 446.65 304.023 446.65 295.773V219.751C433.827 229.529 417.642 235.326 400.239 235.326C357.806 235.326 323.604 201.135 323.604 158.691Z" fill="white"/>
<path d="M617.638 96.1034V172.738V173.034C617.331 206.934 589.847 234.413 555.655 234.413C521.77 234.413 494.291 206.934 493.989 173.034V172.738V96.1034C493.989 87.8634 500.705 81.1461 508.947 81.1461C517.495 81.1461 524.211 87.8634 524.211 96.1034V172.433C524.211 189.833 538.253 204.185 555.655 204.185C573.365 204.185 587.411 189.833 587.411 172.433V96.1034C587.411 87.8634 594.131 81.1461 602.678 81.1461C610.919 81.1461 617.638 87.8634 617.638 96.1034Z" fill="white"/>
<path d="M636.581 219.144V96.1037C636.581 87.8637 643.297 81.1464 651.847 81.1464C660.089 81.1464 666.807 87.8637 666.807 96.1037V219.144C666.807 227.69 660.089 234.413 651.847 234.413C643.297 234.413 636.581 227.69 636.581 219.144ZM641.159 46.3384C638.409 43.5877 636.581 39.6224 636.581 35.6544C636.581 31.6837 638.409 27.7157 641.159 24.9704C643.902 22.2197 647.869 20.3891 651.847 20.3891C655.815 20.3891 659.781 22.2197 662.531 24.9704C665.275 27.7157 666.807 31.6837 666.807 35.6544C666.807 39.6224 665.275 43.5877 662.531 46.3384C659.781 49.0864 655.815 50.6157 651.847 50.6157C647.869 50.6157 643.902 49.0864 641.159 46.3384" fill="white"/>
<path d="M776.107 96.1034C776.107 104.353 769.391 111.37 760.843 111.37C735.2 111.37 714.433 132.137 714.433 157.779V219.143C714.433 227.394 707.724 234.413 699.473 234.413C690.927 234.413 684.207 227.394 684.207 219.143V157.779C684.207 115.337 718.707 81.1461 760.843 81.1461C769.391 81.1461 776.107 87.8634 776.107 96.1034Z" fill="white"/>
<path d="M805.414 157.475C805.414 182.811 826.182 203.886 851.825 203.886C877.47 203.886 898.237 182.811 898.237 157.475C898.237 131.819 877.47 111.062 851.825 111.062C826.182 111.062 805.414 131.819 805.414 157.475ZM775.187 157.475C775.187 115.039 809.687 80.8392 851.825 80.8392C894.267 80.8392 928.459 115.039 928.459 157.475C928.459 199.61 894.267 234.103 851.825 234.103C809.687 234.103 775.187 199.61 775.187 157.475" fill="white"/>
<path d="M612.615 37.9283C612.615 17.1629 630.127 -0.343722 650.889 -0.343722C671.653 -0.343722 689.161 17.1629 689.161 37.9283C689.161 58.6976 671.653 76.2083 650.889 76.2083C630.127 76.2083 612.615 58.6976 612.615 37.9283Z" fill="#00ADEF"/>
</svg>
